<?xml version="1.0" encoding="UTF-8" standalone="no"?>
<svg version="1.1" xmlns="http://www.w3.org/2000/svg" xmlns:xlink="http://www.w3.org/1999/xlink" width="1076" height="410">
	<g id="dp_dp001" transform="matrix(1,0,0,1,-82.1867,-196.883)">
		<path id="dp_path002" fill="#acd9d1" fill-rule="evenodd" stroke="none" stroke-width="0" d="M 82.1867,196.883 L 1158.44,196.883 L 1158.44,606.661 L 82.1867,606.661 Z "/>
		<path id="dp_path003" fill="#15182b" fill-rule="evenodd" stroke="none" stroke-width="0" d="M 437.656,397.48 L 333.82,397.48 C 336.091,409.979 341.208,419.124 349.196,424.872 C 357.208,430.645 365.903,433.516 375.329,433.516 C 389.872,433.516 402.02,427.468 411.847,415.371 L 430.595,429.532 C 416.533,447.804 397.711,456.955 374.097,456.955 C 356.025,456.955 340.876,450.755 328.679,438.327 C 316.487,425.904 310.388,410.479 310.388,392.057 C 310.388,374.799 316.561,359.851 328.909,347.176 C 341.257,334.497 356.352,328.173 374.172,328.173 C 391.687,328.173 406.705,334.599 419.204,347.452 C 431.707,360.307 437.856,376.989 437.656,397.48 Z M 336.597,377.064 L 411.191,377.064 C 402.903,360.256 390.68,351.863 374.472,351.863 C 356.833,351.863 344.179,360.256 336.597,377.064 Z "/>
		<path id="dp_path004" fill="#15182b" fill-rule="evenodd" stroke="none" stroke-width="0" d="M 559.025,416.127 L 559.025,445.613 C 545.921,453.171 533.217,456.955 520.919,456.955 C 504.087,456.955 489.343,450.629 476.689,437.951 C 464.04,425.273 457.716,410.635 457.716,393.977 C 457.716,375.049 464.016,359.349 476.613,346.876 C 489.217,334.397 505.019,328.173 524.021,328.173 C 535.337,328.173 547.003,331.12 559.025,336.993 L 559.025,365.723 C 546.121,357.66 533.873,353.625 522.357,353.625 C 511.699,353.625 502.372,357.36 494.384,364.816 C 486.391,372.253 482.412,380.997 482.412,390.975 C 482.412,402.265 486.165,411.743 493.652,419.455 C 501.135,427.141 510.311,430.996 521.169,430.996 C 532.209,430.996 544.839,426.029 559.025,416.127 Z "/>
		<path id="dp_path005" fill="#15182b" fill-rule="evenodd" stroke="none" stroke-width="0" d="M 590.227,261.893 L 615.929,261.893 L 615.929,351.511 C 623.011,343.343 629.615,337.4 635.764,333.716 C 641.913,330.013 649.42,328.173 658.271,328.173 C 668.599,328.173 677.524,332.157 685.031,340.096 C 692.568,348.033 696.321,357.535 696.321,368.569 L 696.321,453.677 L 670.619,453.677 L 670.619,375.631 C 670.619,367.919 668.679,361.719 664.795,357.079 C 660.916,352.419 655.775,350.099 649.395,350.099 C 640.149,350.099 632.261,353.601 625.732,360.632 C 619.207,367.663 615.929,376.157 615.929,386.164 L 615.929,453.677 L 590.227,453.677 Z "/>
		<path id="dp_path006" fill="#73a2ac" fill-rule="evenodd" stroke="none" stroke-width="0" d="M 721.223,392.057 C 721.223,375.375 727.803,360.581 740.932,347.603 C 754.087,334.648 769.156,328.173 786.195,328.173 C 803.735,328.173 819.029,334.548 832.133,347.327 C 845.213,360.08 851.768,374.999 851.768,392.057 C 851.768,409.196 845.339,424.291 832.489,437.371 C 819.66,450.424 804.817,456.955 787.984,456.955 C 769.963,456.955 754.337,450.5 741.083,437.576 C 727.852,424.672 721.223,409.497 721.223,392.057 Z M 827.072,392.108 C 827.072,381.755 823.139,372.755 815.251,365.092 C 807.388,357.46 798.012,353.625 787.201,353.625 C 776.061,353.625 766.485,357.509 758.472,365.247 C 750.433,373.005 746.424,382.256 746.424,393.015 C 746.424,403.273 750.484,412.248 758.623,419.956 C 766.736,427.643 776.263,431.501 787.201,431.501 C 797.836,431.501 807.137,427.543 815.1,419.655 C 823.088,411.767 827.072,402.567 827.072,392.108 Z "/>
		<path id="dp_path007" fill="#73a2ac" fill-rule="evenodd" stroke="none" stroke-width="0" d="M 827.072,392.108 C 827.072,392.935 827.047,393.752 826.997,394.559 L 851.717,394.559 C 851.748,393.732 851.768,392.9 851.768,392.057 C 851.768,374.999 845.213,360.08 832.133,347.327 C 819.029,334.548 803.735,328.173 786.195,328.173 C 786.019,328.173 785.849,328.179 785.684,328.179 L 785.684,353.651 C 786.184,353.636 786.691,353.625 787.201,353.625 C 798.012,353.625 807.388,357.46 815.251,365.092 C 823.139,372.755 827.072,381.755 827.072,392.108 Z M 785.684,316.933 C 806.16,317.003 824.031,324.491 839.355,339.424 C 854.715,354.408 862.417,371.932 862.417,391.968 C 862.417,392.84 862.403,393.701 862.372,394.559 L 888.721,394.559 C 888.747,393.631 888.761,392.699 888.761,391.763 C 888.761,364.836 878.413,341.293 857.772,321.163 C 837.191,301.097 813.191,291.04 785.684,290.935 Z M 785.684,279.775 C 816.212,279.884 842.848,291.049 865.689,313.32 C 888.601,335.66 900.088,361.795 900.088,391.677 C 900.088,392.644 900.072,393.607 900.052,394.559 L 928.552,394.559 C 928.572,393.531 928.587,392.499 928.587,391.456 C 928.587,354.127 914.24,321.479 885.615,293.571 C 857.085,265.752 823.815,251.807 785.684,251.661 Z "/>
	</g>
	<g id="dp_dp008" transform="matrix(1,0,0,1,74.8216,337.916)">
		<text id="dp_text009" xml:space="preserve" fill="#15182b" font-family="Tw Cen MT" font-size="74" font-weight="400" x="0" y="0">e</text>
		<text id="dp_text010" xml:space="preserve" fill="#15182b" font-family="Tw Cen MT" font-size="51" font-weight="400" x="36.92" y="0">asy</text>
	</g>
	<g id="dp_dp011" transform="matrix(1,0,0,1,218.143,337.914)">
		<text id="dp_text012" xml:space="preserve" fill="#15182b" font-family="Tw Cen MT" font-size="74" font-weight="400" x="0" y="0">c</text>
		<text id="dp_text013" xml:space="preserve" fill="#15182b" font-family="Century Gothic" font-size="51" font-weight="400" x="28.28" y="0">ontextual</text>
	</g>
	<g id="dp_dp014" transform="matrix(1,0,0,1,505.284,337.91)">
		<text id="dp_text015" xml:space="preserve" fill="#15182b" font-family="Tw Cen MT" font-size="74" font-weight="400" x="0" y="0">h</text>
		<text id="dp_text016" xml:space="preserve" fill="#15182b" font-family="Century Gothic" font-size="51" font-weight="400" x="32.2067" y="0">ospital</text>
	</g>
	<g id="dp_dp017" transform="matrix(1,0,0,1,730.106,337.91)">
		<text id="dp_text018" xml:space="preserve" fill="#15182b" font-family="Tw Cen MT" font-size="74" font-weight="400" x="0" y="0">o</text>
		<text id="dp_text019" xml:space="preserve" fill="#15182b" font-family="Century Gothic" font-size="51" font-weight="400" x="36.9213" y="0">rientation</text>
	</g>
</svg>